<?xml version="1.0" encoding="iso-8859-1"?>
<!-- Generator: Adobe Illustrator 19.0.0, SVG Export Plug-In . SVG Version: 6.00 Build 0)  -->
<svg version="1.1" id="Layer_1" xmlns="http://www.w3.org/2000/svg" xmlns:xlink="http://www.w3.org/1999/xlink" x="0px" y="0px"
	 viewBox="0 0 512.001 512.001" style="enable-background:new 0 0 512.001 512.001;" xml:space="preserve">
<g>
	<path style="fill:#FF3F62;" d="M172.354,461.004v16.975c0,18.712,15.134,34.021,34.021,34.021s34.831-15.31,34.831-34.021v-16.975
		l-34.662-10.449L172.354,461.004z"/>
	<path style="fill:#FF3F62;" d="M161.621,127.964c0,0-56.904,13.451-57.31,43.827c0,0.405-2.025,32.806,57.31,32.806l14.378-38.316
		L161.621,127.964z"/>
</g>
<path style="fill:#FF0C38;" d="M111.422,154.346c-4.262,5.04-7.022,10.842-7.111,17.445c0,0.405-2.025,32.806,57.31,32.806
	l7.922-21.112C125.365,182.4,114.16,162.643,111.422,154.346z"/>
<path style="fill:#B87FD9;" d="M280.087,102.534L249.432,18.56c0,0-7.983-23.63-29.059-17.563c0,0-15.008,4.47-14.051,26.824
	c0,0.32,5.748,95.729,5.748,95.729L280.087,102.534z"/>
<path style="fill:#A258CD;" d="M235.535,1.921c-4.036-1.939-9.044-2.689-15.161-0.928c0,0-15.008,4.471-14.051,26.824
	c0,0.32,5.748,95.729,5.748,95.729l23.39-7.227c-0.824-13.689-5.627-93.436-5.627-93.727C229.397,12.413,232.274,5.95,235.535,1.921
	z"/>
<path style="fill:#FFE477;" d="M311.514,198.385l-31.427-95.852l-118.465,25.43v76.633l80.796,10.449l66.617-10.449
	C314.433,204.597,311.515,198.386,311.514,198.385z"/>
<path style="fill:#57A4FF;" d="M296.503,241.382h12.431c5.398,0,2.481-6.211,2.48-6.212l-15.041-30.574H172.354l-15.041,30.574
	c0,0.001-2.918,6.212,2.48,6.212h12.431l-14.912,30.31c0,0.001-2.918,6.212,2.48,6.212l77.023,10.449l72.12-10.449
	c5.398,0,2.481-6.211,2.48-6.212L296.503,241.382z"/>
<path style="fill:#B87FD9;" d="M392.146,351.211h12.285c5.398,0,2.481-6.211,2.48-6.212l-22.87-37.346
	c0,0-15.965-29.749-64.465-29.749H172.354l0,0l0,0l-15.041,30.574c0,0.001-2.918,6.212,2.48,6.212h12.431l-14.912,30.31
	c0,0.001-2.918,6.212,2.48,6.212h12.285l-14.764,30.012c0,0.001-2.918,6.212,2.48,6.212h12.561v6.954
	c0,18.712,68.851,18.712,68.851,0v-6.954h81.812v6.954c0,18.712,68.851,20.263,68.851,0v-6.954h12.561
	c5.398,0,2.481-6.211,2.48-6.212L392.146,351.211z"/>
<g>
	<path style="fill:#A258CD;" d="M192.807,477.98v-90.546h-12.561c-5.398,0-2.481-6.211-2.48-6.212l12.194-24.807
		c2.5-5.082-2.956-5.189-2.956-5.189l-6.757-0.016c-5.398,0-2.481-6.211-2.48-6.212l12.456-25.32c2.238-4.867-3.045-4.98-3.045-4.98
		l-6.932-0.009c-5.398,0-2.481-6.211-2.48-6.212l12.583-25.576c2.253-4.879-3.031-4.998-3.031-4.998h-14.963l0,0l0,0l-15.041,30.574
		c0,0.001-2.918,6.212,2.48,6.212h12.431L157.314,345c0,0.001-2.918,6.212,2.48,6.212h12.285l-14.764,30.012
		c0,0.001-2.918,6.212,2.48,6.212h12.561v90.546c0,18.712,15.134,34.021,34.021,34.021c3.555,0,7.005-0.543,10.264-1.549
		C202.78,506.117,192.807,493.169,192.807,477.98z"/>
	<path style="fill:#A258CD;" d="M360.001,345.571c-0.446-1.145-0.934-2.27-1.451-3.341c-1.881-3.897-0.246-8.583,3.653-10.464
		c3.897-1.881,8.583-0.245,10.464,3.653c0.694,1.437,1.346,2.939,1.939,4.463c1.57,4.033-0.417,8.598-4.459,10.146
		C365.116,351.956,361.208,348.67,360.001,345.571z"/>
	<path style="fill:#A258CD;" d="M345.502,326.509c-17.13-12.594-40.163-10.991-40.392-10.972c-4.323,0.339-8.081-2.901-8.412-7.215
		c-0.33-4.315,2.9-8.081,7.215-8.412c1.178-0.091,29.111-2.026,50.873,13.972c3.487,2.563,4.355,7.56,1.672,10.956
		C352.228,330.188,346.9,327.537,345.502,326.509z"/>
</g>
<path style="fill:#FFE477;" d="M241.205,424.22h12.561c5.398,0,2.481-6.211,2.48-6.212l-15.041-30.574h-68.851l-15.041,30.574
	c0,0.001-2.918,6.212,2.48,6.212h12.561l-15.041,30.574c0,0.001-2.918,6.212,2.48,6.212h93.974c5.398,0,2.481-6.211,2.48-6.212
	L241.205,424.22z"/>
<path style="fill:#FFDA44;" d="M177.766,454.793l12.714-25.843c1.917-4.596-3.129-4.73-3.129-4.73h-7.105
	c-5.398,0-2.481-6.211-2.48-6.212l12.921-26.266c1.46-4.198-3.335-4.292-3.335-4.292l-14.998-0.016l-15.041,30.574
	c0,0.001-2.918,6.212,2.48,6.212h12.561l-15.041,30.574c0,0.001-2.918,6.212,2.48,6.212h20.455
	C174.848,461.004,177.765,454.794,177.766,454.793z"/>
<path style="fill:#FF3F62;" d="M323.018,461.004v16.975c0,18.712,15.681,34.021,34.021,34.021c18.34,0,34.831-13.758,34.831-34.021
	v-16.975l-35.211-10.449L323.018,461.004z"/>
<path style="fill:#FFE477;" d="M391.87,424.22h12.561c5.398,0,2.481-6.211,2.48-6.212l-15.041-30.574h-68.851l-15.041,30.574
	c0,0.001-2.918,6.212,2.48,6.212h12.561l-15.041,30.574c0,0.001-2.918,6.212,2.48,6.212h93.974c5.398,0,2.481-6.211,2.48-6.212
	L391.87,424.22z"/>
<path style="fill:#FFDA44;" d="M328.43,454.793l12.714-25.843c1.917-4.596-3.129-4.73-3.129-4.73h-7.104
	c-5.398,0-2.481-6.211-2.48-6.212l12.921-26.266c1.46-4.198-3.335-4.292-3.335-4.292l-14.998-0.016l-15.041,30.574
	c0,0.001-2.918,6.212,2.48,6.212h12.561l-15.041,30.574c0,0.001-2.918,6.212,2.48,6.212h20.453
	C325.512,461.004,328.429,454.794,328.43,454.793z"/>
<g>
	<path style="fill:#FF0C38;" d="M192.807,477.98v-16.975h-20.453v16.975c0,18.712,15.134,34.021,34.021,34.021
		c3.555,0,7.005-0.543,10.264-1.548C202.781,506.117,192.807,493.169,192.807,477.98z"/>
	<path style="fill:#FF0C38;" d="M343.472,477.98v-16.975h-20.453v16.975c0,18.712,15.134,34.021,34.021,34.021
		c3.555,0,7.005-0.543,10.264-1.548C353.445,506.117,343.472,493.169,343.472,477.98z"/>
</g>
<path style="fill:#2488FF;" d="M182.39,271.693l12.359-25.122c2.499-5.081-2.957-5.188-2.957-5.188h-6.922
	c-5.398,0-2.481-6.211-2.48-6.212l15.041-30.574h-25.078l-15.041,30.574c0,0.001-2.918,6.212,2.48,6.212h12.431l-14.912,30.31
	c0,0.001-2.918,6.212,2.48,6.212h25.078C179.473,277.904,182.39,271.694,182.39,271.693z"/>
<path style="fill:#FFDA44;" d="M161.621,204.597h147.413c5.398,0,2.481-6.211,2.48-6.212l-4.868-14.849H161.621V204.597z"/>
<circle style="fill:#FFFFFF;" cx="206.724" cy="152.754" r="20.25"/>
<path style="fill:#3E3D42;" d="M206.724,160.592c-2.059,0-4.075-0.836-5.538-2.288c-1.463-1.463-2.299-3.48-2.299-5.548
	c0-2.058,0.836-4.086,2.299-5.538c1.462-1.463,3.478-2.299,5.538-2.299c2.068,0,4.086,0.836,5.548,2.299
	c1.453,1.463,2.288,3.48,2.288,5.538c0,2.069-0.836,4.086-2.288,5.548C210.809,159.756,208.793,160.592,206.724,160.592z"/>
<g>
</g>
<g>
</g>
<g>
</g>
<g>
</g>
<g>
</g>
<g>
</g>
<g>
</g>
<g>
</g>
<g>
</g>
<g>
</g>
<g>
</g>
<g>
</g>
<g>
</g>
<g>
</g>
<g>
</g>
</svg>
