<svg width="198" height="235" viewBox="0 0 198 235" fill="none" xmlns="http://www.w3.org/2000/svg">
<path fill-rule="evenodd" clip-rule="evenodd" d="M151.867 188.057C150.749 199.434 130.233 207.191 102.868 207.851C102.84 207.851 102.782 207.851 102.754 207.851C96.2206 207.995 89.2863 207.765 82.1228 207.076C67.5665 205.668 54.271 202.594 43.5543 198.515C39.1989 196.877 35.3019 195.067 31.8921 193.142C22.2643 187.684 16.7627 181.306 17.3644 174.957C18.6252 162.001 45.0443 153.756 78.1112 155.307C81.0626 155.45 84.0712 155.652 87.1086 155.968C101.951 157.404 115.505 160.593 126.307 164.759C142.554 170.993 152.698 179.554 151.867 188.057Z" fill="#1C2628" stroke="#1C2628" stroke-width="2.13" stroke-linecap="round" stroke-linejoin="round"/>
<path d="M158.486 179.238C161.982 183.547 162.326 187.311 162.125 192.137C161.466 207.65 140.462 211.012 128.743 214.488" stroke="#1C2628" stroke-width="2.13" stroke-linecap="round" stroke-linejoin="round"/>
<path d="M41.5485 149.532C24.6425 152.377 4.32676 163.495 10.4874 183.72" stroke="#1C2628" stroke-width="2.13" stroke-linecap="round" stroke-linejoin="round"/>
<path d="M116.594 192.395C117.482 191.16 117.339 191.965 116.307 192.194C112.611 193.028 108.914 194.004 105.247 194.981C100.605 196.216 96.6503 199.233 92.3809 201.416" stroke="#1C2628" stroke-width="2.13" stroke-linecap="round" stroke-linejoin="round"/>
<path fill-rule="evenodd" clip-rule="evenodd" d="M139.288 148.9C156.308 130.715 112.467 45.3625 85.3033 61.7953C75.9048 66.1907 72.0651 73.6314 68.3114 82.3937C59.1994 115.92 19.2556 104.716 18.0521 140.914C15.7884 193.746 121.064 187.77 139.288 148.9Z" fill="#F3A13B"/>
<path fill-rule="evenodd" clip-rule="evenodd" d="M40.8321 86.9615C47.0787 85.956 53.0388 85.324 51.3195 94.2299C51.0903 95.4365 49.3711 102.963 43.325 103.797C31.0611 105.779 28.5109 88.6565 40.8321 86.9615Z" fill="#F3A13B"/>
<path fill-rule="evenodd" clip-rule="evenodd" d="M59.3427 85.008C56.7065 86.8754 51.692 84.2898 53.354 80.8136C54.6434 73.5453 68.8559 81.733 59.3427 85.008Z" fill="#F3A13B"/>
<path d="M61.7783 126.348C62.6666 128.446 63.5835 130.744 63.0104 132.956C62.5519 134.795 61.1479 136.26 59.7438 137.524C59.0275 138.156 58.2825 138.817 57.3656 139.075C56.4486 139.362 55.3311 139.19 54.7294 138.443C54.0703 137.639 54.2423 136.403 54.7294 135.484C55.1019 134.766 55.7323 134.134 56.5059 133.904C57.8527 133.502 59.2854 134.507 59.8298 135.8C60.3742 137.093 60.231 138.558 59.9444 139.937C58.7696 145.568 55.589 150.509 52.4657 155.336" stroke="#1C2628" stroke-width="2.13" stroke-linecap="round" stroke-linejoin="round"/>
<path fill-rule="evenodd" clip-rule="evenodd" d="M45.4167 119.827C48.7406 120.229 52.9241 114.742 48.0243 114.196C46.5056 114.742 43.3823 119.138 44.901 119.712" fill="#FAF6EB"/>
<path fill-rule="evenodd" clip-rule="evenodd" d="M78.3116 82.8245C74.7298 83.5715 73.2971 86.8178 75.045 90.2078C75.5321 91.1558 78.3976 95.2928 80.9764 94.8331C82.2086 94.6033 86.1342 95.1491 85.3605 85.7549C84.8734 82.0776 83.0968 81.8478 78.3116 82.8245Z" fill="#F45B49" stroke="#1C2628" stroke-width="2.13" stroke-linecap="round" stroke-linejoin="round"/>
<path fill-rule="evenodd" clip-rule="evenodd" d="M132.583 137.237C128.256 151.773 106.479 185.213 104.931 190.758L104.702 189.81C99.8022 191.534 71.6925 191.792 62.4945 182.915C61.5776 182.024 60.8612 181.076 60.3455 179.985L67.9675 160.966C67.509 161.627 63.0103 157.634 68.254 146.602C69.6867 143.586 72.6667 135.427 72.6667 135.427C72.896 134.191 73.555 129.394 74.3573 123.533C74.2427 123.332 74.2141 123.217 74.2141 123.217C71.6925 121.493 62.2366 122.183 60.0876 114.771C59.7724 113.65 59.6005 112.329 59.6578 110.778C59.7151 109.054 60.7753 108.249 61.9788 107.905C63.1536 107.56 64.4717 107.617 65.1307 107.675C68.6838 107.876 72.151 109.197 75.4462 110.576C75.6754 110.663 75.876 110.778 76.1052 110.864C77.2228 102.791 78.283 95.7812 78.6268 95.4077C79.1999 94.7757 79.7443 94.1436 80.2887 93.5403C82.008 91.6443 83.7559 90.2078 86.7073 91.2995C88.6271 91.989 90.4896 92.7359 92.2662 93.5978C96.0199 95.4077 99.4297 97.706 102.152 101.125C104.845 104.486 107.281 108.106 109.115 111.984C110.777 115.489 111.866 119.31 112.553 123.102C113.04 125.688 113.384 128.388 113.212 131.031C113.184 131.692 113.098 132.324 112.983 132.985C112.467 135.886 111.751 138.73 110.949 141.546L132.583 137.237Z" fill="#F45B49" stroke="#1C2628" stroke-width="2.13" stroke-linecap="round" stroke-linejoin="round"/>
<path fill-rule="evenodd" clip-rule="evenodd" d="M62.4946 182.915C61.5777 182.024 60.8613 181.076 60.3455 179.985L67.9675 160.966C67.5091 161.627 63.0104 157.634 68.2541 146.602C69.6868 143.586 72.6668 135.427 72.6668 135.427C72.896 134.191 73.5551 129.394 74.3574 123.533C74.2428 123.332 74.2141 123.217 74.2141 123.217C71.6926 121.493 62.2367 122.183 60.0876 114.771C62.1794 115.144 64.4144 115.834 66.7927 116.552C71.5493 117.988 74.4147 118.85 75.9334 121.522C77.7099 124.625 75.5036 126.348 76.9649 133.674C77.3947 135.886 77.8246 136.806 78.369 140.052C78.9994 143.787 79.2859 145.683 78.7415 147.09C77.3661 150.567 73.3259 150.911 73.3832 153.095C73.4118 154.388 74.8445 154.905 76.3059 156.284C76.3059 156.284 80.2028 159.903 80.518 166.482C80.9192 174.785 69.9733 184.38 62.4946 182.915Z" fill="#FAF6EB"/>
<path fill-rule="evenodd" clip-rule="evenodd" d="M113.241 131.06C111.379 132.64 109.344 133.875 107.138 134.565C101.149 136.461 94.9597 134.076 89.6587 132.008C85.4752 130.37 80.4321 128.446 79.1426 124.165C78.4263 121.781 79.3432 120.287 77.9678 118.534C76.3918 116.581 74.3001 117.328 70.575 115.719C66.9073 114.139 64.7582 111.582 63.9559 110.605C63.3255 109.858 62.6378 108.91 62.0074 107.876C63.1823 107.531 64.5004 107.589 65.1594 107.646C68.7125 107.847 72.1797 109.169 75.4749 110.548C75.7041 110.634 75.9047 110.749 76.1339 110.835C77.2514 102.762 78.3116 95.7524 78.6555 95.3789C79.2286 94.7469 79.773 94.1149 80.3174 93.5116C84.1571 93.253 88.2546 93.2818 92.3235 93.569C96.0772 95.3789 99.487 97.6772 102.209 101.096C104.903 104.457 107.338 108.077 109.172 111.955C110.834 115.46 111.923 119.281 112.611 123.073C113.069 125.716 113.442 128.417 113.241 131.06Z" fill="#1C2628" stroke="#1C2628" stroke-width="2.13" stroke-linecap="round" stroke-linejoin="round"/>
<path fill-rule="evenodd" clip-rule="evenodd" d="M68.0821 182.341C69.2569 181.278 70.4031 180.157 71.4633 178.979C62.5519 173.578 62.4659 169.212 62.4659 169.212L43.5542 198.486C52.7808 201.991 63.9273 204.749 76.1053 206.358C74.1281 201.186 71.0908 196.274 67.2225 192.108C64.9302 189.235 65.7898 184.639 68.0821 182.341Z" fill="#FAF6EB"/>
<path fill-rule="evenodd" clip-rule="evenodd" d="M79.9163 183.174C76.4492 181.737 73.6984 180.329 71.4634 178.979C70.4318 180.157 69.2857 181.278 68.0822 182.34C65.7898 184.639 64.9302 189.235 67.2226 192.108C71.1195 196.274 74.1569 201.186 76.1053 206.358C78.0825 206.616 80.0883 206.846 82.1227 207.047C89.2576 207.737 96.1919 207.995 102.754 207.823C102.782 207.823 102.84 207.823 102.868 207.823L110.92 185.213C110.92 185.242 100.576 191.735 79.9163 183.174Z" fill="#FB564C"/>
<path fill-rule="evenodd" clip-rule="evenodd" d="M114.731 121.235C115.533 119.08 114.387 115.69 113.757 113.535C110.232 101.699 100.261 95.7524 90.2605 89.9493C86.7933 87.9383 84.8448 87.5935 81.7215 93.2818C80.0596 96.2983 78.9707 103.71 81.2344 105.779C87.9681 111.84 96.3065 116.609 100.891 124.251C101.579 125.4 105.075 135.743 105.075 135.743C105.075 135.743 107.31 133.128 110.06 130.744C112.353 128.733 113.012 128.589 113.356 128.101L114.731 121.235Z" fill="#F7AA9A"/>
<path d="M145.362 76.3606C144.531 75.9297 144.188 74.9242 144.617 74.0623L144.675 73.9762C145.105 73.143 146.107 72.7983 146.967 73.2292C147.798 73.6601 148.142 74.6656 147.712 75.5275L147.655 75.6137C147.196 76.4755 146.193 76.7916 145.362 76.3606ZM146.623 73.9187C146.165 73.6889 145.62 73.8612 145.362 74.3209L145.305 74.4071C145.076 74.8667 145.248 75.4126 145.706 75.6711C146.165 75.901 146.709 75.7286 146.967 75.2689L147.024 75.1828C147.254 74.6944 147.082 74.1485 146.623 73.9187Z" fill="#1C2628" stroke="#1C2628" stroke-width="2.13" stroke-linecap="round" stroke-linejoin="round"/>
<path d="M143.557 79.8942C142.726 79.4633 142.382 78.4578 142.812 77.5959L142.869 77.5097C143.299 76.6766 144.302 76.3319 145.162 76.7628C146.021 77.1937 146.337 78.1992 145.907 79.0611L145.849 79.1473C145.391 80.0091 144.388 80.3251 143.557 79.8942ZM144.789 77.4523C144.331 77.2224 143.786 77.3948 143.528 77.8545L143.471 77.9406C143.242 78.4003 143.414 78.9462 143.872 79.2047C144.331 79.4633 144.875 79.2622 145.133 78.8025L145.19 78.7163C145.448 78.2279 145.276 77.6821 144.789 77.4523Z" fill="#1C2628" stroke="#1C2628" stroke-width="2.13" stroke-linecap="round" stroke-linejoin="round"/>
<path d="M146.68 72.0514C145.448 71.4194 144.99 69.8967 145.592 68.6901L147.683 64.6394C148.314 63.4041 149.804 62.9444 151.036 63.5477C152.268 64.1798 152.726 65.7024 152.125 66.909L150.033 70.9597C149.403 72.195 147.884 72.6834 146.68 72.0514ZM150.692 64.2372C149.832 63.8063 148.801 64.1223 148.371 64.9842L146.279 69.0349C145.849 69.8967 146.165 70.931 147.024 71.3619C147.884 71.7928 148.915 71.4768 149.345 70.615L151.437 66.5642C151.867 65.7024 151.552 64.6681 150.692 64.2372Z" fill="#1C2628" stroke="#1C2628" stroke-width="2.13" stroke-linecap="round" stroke-linejoin="round"/>
<path fill-rule="evenodd" clip-rule="evenodd" d="M161.093 47.948L118.342 131.175C117.052 133.703 113.957 134.68 111.436 133.387L74.0422 114.081C71.5207 112.788 70.5464 109.686 71.8359 107.158L96.0772 59.9278C96.9369 59.8704 97.7965 59.8129 98.6848 59.7555L73.9276 107.991C73.1826 109.456 73.7557 111.266 75.217 112.042L112.324 131.175C112.754 131.405 113.212 131.52 113.7 131.52C114.817 131.52 115.849 130.888 116.364 129.882L158.944 46.9712C159.088 46.684 159.174 46.3967 159.231 46.1094C159.26 46.1094 159.288 46.0807 159.317 46.0807C160.119 45.7359 160.893 45.3624 161.667 45.0177C161.753 45.9657 161.581 47 161.093 47.948Z" fill="#1C2628" stroke="#1C2628" stroke-width="2.13" stroke-linecap="round" stroke-linejoin="round"/>
<path fill-rule="evenodd" clip-rule="evenodd" d="M159.202 46.1094C159.145 46.3967 159.059 46.684 158.916 46.9713L116.364 129.882C115.849 130.888 114.817 131.52 113.7 131.52C113.212 131.52 112.754 131.405 112.324 131.175L75.217 112.042C73.7557 111.295 73.1826 109.485 73.9276 107.991L98.6847 59.7843C104.444 59.3821 110.719 58.6638 117.281 57.6009C133.729 54.9004 148.715 50.6773 159.202 46.1094Z" fill="#FAF6EB"/>
<path fill-rule="evenodd" clip-rule="evenodd" d="M135.448 29.4181C135.448 29.4181 134.646 30.9982 134.588 32.3197C134.588 32.4059 134.588 32.4633 134.588 32.5495C134.617 33.7561 135.362 34.8191 136.422 35.3649L139.173 36.7726C139.947 37.1748 140.835 37.261 141.637 37.0024C141.981 36.8875 142.325 36.7439 142.64 36.5428C143.758 35.7958 144.503 34.2445 144.503 34.2445L135.448 29.4181Z" fill="#1C2628" stroke="#1C2628" stroke-width="2.13" stroke-linecap="round" stroke-linejoin="round"/>
<path fill-rule="evenodd" clip-rule="evenodd" d="M137.969 116.983C138.256 118.534 135.219 132.324 131.322 140.856L88.4265 149.015C88.4265 149.015 89.544 144.792 91.865 140.109C93.9281 135.944 96.9081 131.433 100.891 129.193C112.639 122.585 121.608 125.716 121.608 125.716C121.608 125.716 122.181 120.603 125.82 114.11C125.82 114.11 125.849 113.018 126.021 111.381C126.365 108.106 127.282 102.762 129.717 100.32C134.932 95.0917 139.058 96.1259 138.772 96.9303C139.001 98.022 138.227 116.207 137.969 116.983Z" fill="#F45B49" stroke="#1C2628" stroke-width="2.13" stroke-linecap="round" stroke-linejoin="round"/>
<path fill-rule="evenodd" clip-rule="evenodd" d="M71.492 90.4664C67.853 91.242 66.3916 94.5171 68.1681 97.9933C68.6553 98.9413 71.578 103.193 74.2142 102.705C75.4463 102.475 79.4579 103.021 78.6842 93.4541C78.1684 89.7194 76.3346 89.4609 71.492 90.4664Z" fill="#F45B49" stroke="#1C2628" stroke-width="2.13" stroke-linecap="round" stroke-linejoin="round"/>
<path d="M102.754 207.851C96.2205 207.995 89.2862 207.765 82.1226 207.076C67.5664 205.668 54.2708 202.594 43.5542 198.515" stroke="#1C2628" stroke-width="2.13" stroke-linecap="round" stroke-linejoin="round"/>
<path d="M63.125 171.223C63.125 171.223 64.4144 175.388 71.4633 178.979C78.5123 182.57 85.8191 187.425 96.1059 187.425" stroke="#1C2628" stroke-width="2.13" stroke-linecap="round" stroke-linejoin="round"/>
<path d="M134.846 97.9071C134.846 97.9071 133.786 104.4 134.846 105.434C135.907 106.497 137.454 106.497 137.454 106.497" stroke="#1C2628" stroke-width="2.13" stroke-linecap="round" stroke-linejoin="round"/>
<path fill-rule="evenodd" clip-rule="evenodd" d="M121.923 130.658C117.682 132.669 115.533 129.308 110.06 130.744C103.327 132.554 102.754 138.702 96.9655 140.167C95.6188 140.512 93.9282 140.627 91.8364 140.109C93.8995 135.944 96.8796 131.433 100.862 129.193C112.611 122.585 121.579 125.716 121.579 125.716C121.579 125.716 122.152 120.603 125.792 114.11C125.792 114.11 125.82 113.018 125.992 111.381C127.253 113.191 128.141 115.259 128.399 117.5C128.944 122.585 126.307 128.561 121.923 130.658Z" fill="#FAF6EB"/>
<path fill-rule="evenodd" clip-rule="evenodd" d="M84.6729 152.491C84.3004 150.193 89.3149 147.579 93.527 145.396C102.84 140.569 112.897 138.845 114.273 138.616C119.975 137.696 123.757 137.754 127.253 134.536C129.373 132.611 131.809 128.963 132.554 129.221C133.757 129.652 132.955 137.438 130.634 142.379C125.304 153.784 108.198 155.767 105.103 156.14C96.1632 157.26 85.1887 155.738 84.6729 152.491Z" fill="#FB564C"/>
<path d="M154.188 86.387L145.534 92.1614" stroke="#1C2628" stroke-width="2.13" stroke-linecap="round" stroke-linejoin="round"/>
<path d="M154.704 95.4077L145.706 96.4419" stroke="#1C2628" stroke-width="2.13" stroke-linecap="round" stroke-linejoin="round"/>
<path d="M145.019 100.866L153.328 109.887" stroke="#1C2628" stroke-width="2.13" stroke-linecap="round" stroke-linejoin="round"/>
<path d="M145.362 110.059L149.431 115.001" stroke="#1C2628" stroke-width="2.13" stroke-linecap="round" stroke-linejoin="round"/>
<path d="M63.4116 185.414C62.3801 187.828 61.6924 190.586 62.5806 193.028C63.2397 194.895 64.7297 196.331 65.9905 197.883C67.2513 199.434 68.3401 201.33 68.0249 203.312" stroke="#1C2628" stroke-width="2.13" stroke-linecap="round" stroke-linejoin="round"/>
<path d="M67.939 196.619C68.7699 198.342 70.5465 199.434 71.3201 201.158C71.6927 201.991 71.8073 202.939 71.8073 203.858" stroke="#1C2628" stroke-width="2.13" stroke-linecap="round" stroke-linejoin="round"/>
<path d="M77.0223 165.046C77.0223 166.367 77.0223 167.718 76.793 169.039C76.5638 170.361 76.0767 171.653 75.1884 172.63C74.2428 173.693 72.9247 174.354 71.6639 174.986" stroke="#1C2628" stroke-width="2.13" stroke-linecap="round" stroke-linejoin="round"/>
<path d="M78.0538 171.596C77.6813 172.745 76.9077 173.779 75.9048 174.469" stroke="#1C2628" stroke-width="2.13" stroke-linecap="round" stroke-linejoin="round"/>
<path d="M70.5464 98.3093C70.4031 97.0452 70.2599 95.7237 70.747 94.5746C71.2341 93.4254 72.6095 92.5061 73.7843 93.0232" stroke="#1C2628" stroke-width="2.13" stroke-linecap="round" stroke-linejoin="round"/>
<path d="M127.138 137.036C121.092 147.119 115.361 157.433 109.974 167.89" stroke="#1C2628" stroke-width="2.13" stroke-linecap="round" stroke-linejoin="round"/>
<path d="M119.115 157.289L107.654 179.381" stroke="#1C2628" stroke-width="2.13" stroke-linecap="round" stroke-linejoin="round"/>
<path d="M133.385 122.671C131.58 130.399 132.067 135.771 125.276 146.487" stroke="#1C2628" stroke-width="2.13" stroke-linecap="round" stroke-linejoin="round"/>
<path fill-rule="evenodd" clip-rule="evenodd" d="M174.36 34.3882C173.93 37.692 169.231 41.398 161.638 44.989C160.893 45.3338 160.091 45.7073 159.288 46.052C159.26 46.052 159.231 46.0807 159.202 46.0807C148.715 50.6486 133.7 54.9004 117.281 57.5722C110.719 58.6351 104.444 59.3533 98.6847 59.7555C97.7965 59.813 96.9368 59.8705 96.0772 59.9279C89.1143 60.3014 82.9536 60.2152 77.9105 59.6406C68.7698 58.6351 63.4115 56.107 63.8986 52.2861C64.3858 48.4939 70.6037 44.0985 80.3461 40.019C88.5125 36.6003 99.1432 33.3827 110.977 30.9408C111.923 30.7397 112.84 30.5673 113.785 30.3662C116.135 29.9065 118.542 29.4756 120.978 29.0734C123.614 28.6425 126.193 28.269 128.686 27.953C130.061 27.7806 131.408 27.637 132.726 27.4933C141.867 26.5166 150.062 26.258 156.738 26.6889C168.056 27.4359 174.905 30.1076 174.36 34.3882Z" fill="#1C2628" stroke="#1C2628" stroke-width="2.13" stroke-linecap="round" stroke-linejoin="round"/>
<path d="M98.2836 54.0385C97.424 54.096 96.593 54.1534 95.762 54.1821C93.1258 54.3258 90.5756 54.412 88.1973 54.412C84.6442 54.412 81.4063 54.2396 78.5409 53.9236" stroke="#FAF6EB" stroke-width="2.13" stroke-linecap="round" stroke-linejoin="round"/>
<path d="M159.174 39.8179C158.457 40.1626 157.741 40.4786 156.996 40.8234L156.853 40.8808" stroke="#FAF6EB" stroke-width="2.13" stroke-linecap="round" stroke-linejoin="round"/>
<path d="M82.5525 45.3338C90.5183 42.0012 101.006 38.8986 112.124 36.5715C113.04 36.3992 113.929 36.1981 114.874 36.0257C117.167 35.5948 119.516 35.1638 121.895 34.7616C124.416 34.3594 126.938 33.986 129.431 33.67C130.691 33.4976 131.924 33.3539 133.098 33.239L133.385 33.2103C139.402 32.5783 145.018 32.2335 150.148 32.2335C152.354 32.2335 154.474 32.291 156.423 32.4059" stroke="#FAF6EB" stroke-width="2.13" stroke-linecap="round" stroke-linejoin="round"/>
<path d="M167.942 21.7763C182.613 22.7244 191.524 26.1718 190.779 31.7164C190.235 35.997 184.103 40.8234 174.274 45.4774C173.3 45.9371 172.269 46.3967 171.237 46.8564C171.208 46.8851 171.18 46.8851 171.151 46.8851" stroke="#1C2628" stroke-width="2.13" stroke-linecap="round" stroke-linejoin="round"/>
<path d="M65.6752 64.5245C53.8124 63.203 46.8495 59.9279 47.4799 54.9866C48.1103 50.0453 56.1907 44.357 68.7985 39.0709C79.4006 34.618 93.2119 30.4811 108.542 27.2922C109.745 27.0336 110.977 26.8038 112.181 26.5453C115.247 25.942 118.37 25.3961 121.522 24.879C124.932 24.3332 128.284 23.8448 131.551 23.4426" stroke="#1C2628" stroke-width="2.13" stroke-linecap="round" stroke-linejoin="round"/>
<path d="M151.036 217.677C134.961 221.957 118.8 227.674 102.181 226.669" stroke="#1C2628" stroke-width="2.13" stroke-linecap="round" stroke-linejoin="round"/>
<path d="M119.029 89.03C126.388 89.03 132.353 83.049 132.353 75.6712C132.353 68.2933 126.388 62.3124 119.029 62.3124C111.671 62.3124 105.705 68.2933 105.705 75.6712C105.705 83.049 111.671 89.03 119.029 89.03Z" fill="#F3A13B"/>
<path d="M110.118 70.9597C112.697 66.0183 118.8 64.1223 123.7 66.7366" stroke="#1C2628" stroke-width="2.13" stroke-linecap="round" stroke-linejoin="round"/>
<path d="M112.582 72.2525C114.445 68.6901 118.857 67.3112 122.41 69.2073" stroke="#1C2628" stroke-width="2.13" stroke-linecap="round" stroke-linejoin="round"/>
<path d="M119.029 77.4811C120.026 77.4811 120.834 76.6708 120.834 75.6712C120.834 74.6716 120.026 73.8613 119.029 73.8613C118.032 73.8613 117.224 74.6716 117.224 75.6712C117.224 76.6708 118.032 77.4811 119.029 77.4811Z" stroke="#1C2628" stroke-width="2.13" stroke-linecap="round" stroke-linejoin="round"/>
<path d="M119.832 85.324L116.221 92.2188" stroke="#1C2628" stroke-width="2.13" stroke-linecap="round" stroke-linejoin="round"/>
<path d="M119.832 85.324C119.259 85.0367 119.058 84.3185 119.344 83.7727L119.946 82.6523C120.233 82.0777 120.949 81.8766 121.494 82.1639C122.067 82.4512 122.267 83.1694 121.981 83.7152L121.379 84.8356C121.092 85.4102 120.376 85.6113 119.832 85.324Z" stroke="#1C2628" stroke-width="2.13" stroke-linecap="round" stroke-linejoin="round"/>
<path d="M96.4211 92.5061L116.852 102.935" stroke="#1C2628" stroke-width="2.13" stroke-linecap="round" stroke-linejoin="round"/>
<path d="M104.874 102.734L117.511 109.226" stroke="#1C2628" stroke-width="2.13" stroke-linecap="round" stroke-linejoin="round"/>
<path d="M90.8909 95.5801L104.874 102.733" stroke="black" stroke-width="6" stroke-linecap="round" stroke-linejoin="round"/>
<path d="M37.1644 138.73C35.8463 138.242 34.4136 138.271 33.2387 138.702C32.551 138.932 31.9493 139.276 31.4622 139.678C31.3762 139.362 31.3189 139.046 31.233 138.73C31.0897 138.127 30.9464 137.495 30.8318 136.863C31.3762 136.288 31.8633 135.656 32.2932 134.967C33.382 133.387 34.127 131.491 34.213 129.537C34.2703 127.612 34.2416 125.63 33.4966 123.964C33.3247 123.533 33.1241 123.246 32.7803 122.671C32.6657 122.47 32.4364 122.068 32.1499 121.781C31.8633 121.465 31.3476 121.263 30.8318 121.35C29.8003 121.579 29.3704 122.24 29.0839 122.729C28.9406 122.987 28.8547 123.217 28.7687 123.504C28.7114 123.648 28.6827 123.734 28.6541 123.849L28.6254 123.935C28.5968 124.021 28.5968 124.021 28.5968 124.05L28.5681 124.222C28.3675 125.228 28.4822 126.147 28.5968 127.009C28.7114 127.871 28.826 128.704 28.912 129.537C29.0266 130.859 29.2272 132.152 29.4851 133.444C29.0839 134.019 28.6541 134.593 28.1956 135.111L27.336 136.087C27.0495 136.403 26.7629 136.777 26.4477 137.15C25.2729 138.644 24.356 140.339 23.8689 142.235C23.3531 144.103 23.5537 146.315 24.6139 147.981C25.6454 149.676 27.3073 150.739 28.9693 151.256C30.6026 151.744 32.2645 151.859 33.8405 151.63C34.0411 152.434 34.2416 153.238 34.4136 153.985C35.044 155.968 34.4709 157.835 33.2674 158.524C32.3791 159.013 31.4622 158.84 30.8605 158.524C30.9178 158.524 30.9751 158.524 31.061 158.524C32.0066 158.496 32.723 157.691 32.6657 156.743C32.637 155.795 31.8347 155.077 30.8891 155.134C29.9435 155.163 29.2272 155.968 29.2845 156.916C29.2845 157.002 29.3131 157.059 29.3131 157.145C29.3704 157.49 29.5424 157.806 29.7716 158.036C29.8289 158.122 29.8862 158.18 29.9722 158.266C30.2874 158.582 30.7172 158.898 31.3189 159.07C31.9207 159.243 32.6657 159.271 33.468 158.955C34.2416 158.639 34.958 157.892 35.2445 156.916C35.3878 156.427 35.4738 155.91 35.4165 155.364C35.3592 154.79 35.2445 154.301 35.1299 153.784C34.958 153.037 34.7574 152.262 34.5568 151.457C35.9609 151.17 37.2503 150.595 38.3965 149.82C39.6573 148.872 40.6029 147.493 40.8894 145.97C41.2046 144.447 40.9181 142.867 40.259 141.575C39.6573 140.282 38.5111 139.219 37.1644 138.73ZM30.0868 125.774C30.2874 125.084 30.6312 123.188 31.6914 123.447C32.3505 123.619 32.5224 124.51 32.551 125.084C32.637 126.435 32.3791 127.842 31.806 129.078C31.2616 130.284 30.6885 131.405 30.0295 132.525C29.8862 131.52 29.7716 130.514 29.6856 129.48C29.6283 128.244 29.7716 126.98 30.0868 125.774ZM29.4851 149.935C28.1097 149.331 26.8775 148.354 26.2471 147.062C25.6168 145.798 25.6168 144.304 26.1325 142.896C26.6483 141.488 27.6225 140.196 28.6827 139.046C28.9406 138.759 29.1985 138.472 29.5424 138.156L30.0008 137.725C30.1154 137.61 30.2014 137.524 30.316 137.409C30.4306 137.897 30.5453 138.386 30.6312 138.874C30.7172 139.305 30.8318 139.707 30.9178 140.138C29.9722 141.086 29.4277 142.235 29.2558 143.241C28.9693 144.936 29.4277 146.229 29.8003 146.976C29.9722 147.349 30.1728 147.636 30.2874 147.809C30.402 147.981 30.488 148.067 30.488 148.067C30.488 148.067 30.3447 147.636 30.2014 146.832C30.0868 146.056 29.9722 144.85 30.4593 143.557C30.6599 143.04 30.9464 142.494 31.3762 142.005C31.806 143.758 32.2359 145.482 32.6657 147.062C32.9809 148.297 33.2961 149.504 33.6113 150.624C32.2072 150.739 30.7458 150.509 29.4851 149.935ZM40.0298 145.855C39.9438 147.148 39.1988 148.412 38.024 149.216C36.9924 149.935 35.7317 150.394 34.3849 150.567C34.0697 149.389 33.7259 148.182 33.3534 146.889C32.8662 145.194 32.3791 143.384 31.892 141.488C32.4078 141.029 33.0382 140.655 33.7832 140.454C35.4738 139.994 37.5942 140.54 38.9696 142.408C39.6573 143.356 40.1157 144.591 40.0298 145.855Z" fill="#1C2628" stroke="#1C2628" stroke-width="2.13" stroke-linecap="round" stroke-linejoin="round"/>
<path d="M88.0255 109.858L83.7847 102.676L92.0944 102.561L88.0255 109.858Z" fill="#1C2628" stroke="#1C2628" stroke-width="2.13" stroke-linecap="round" stroke-linejoin="round"/>
<path d="M106.335 120.143L114.674 120.057L110.404 112.875L106.335 120.143Z" fill="#1C2628" stroke="#1C2628" stroke-width="2.13" stroke-linecap="round" stroke-linejoin="round"/>
<path d="M98.7473 106.326L94.6665 113.616L96.7903 114.811L100.871 107.521L98.7473 106.326Z" fill="#1C2628" stroke="#1C2628" stroke-width="2.1299" stroke-miterlimit="3.9998" stroke-linecap="round" stroke-linejoin="round"/>
<path d="M102.377 108.362L98.2963 115.652L100.42 116.847L104.501 109.557L102.377 108.362Z" fill="#1C2628" stroke="#1C2628" stroke-width="2.1299" stroke-miterlimit="3.9998" stroke-linecap="round" stroke-linejoin="round"/>
</svg>
